<svg width="481" height="317" viewBox="0 0 481 317" fill="none" xmlns="http://www.w3.org/2000/svg">
<path d="M99.3658 137.824C75.0653 137.935 55.2856 138.292 55.2856 138.292C55.2856 138.292 78.7969 107.386 99.2777 118.836C119.758 130.287 143.286 137.889 143.286 137.889C143.286 137.889 123.666 137.713 99.3658 137.824Z" fill="#F2F2F2"/>
<path d="M371.286 147.292C374.047 147.292 376.286 145.053 376.286 142.292C376.286 139.53 374.047 137.292 371.286 137.292C368.524 137.292 366.286 139.53 366.286 142.292C366.286 145.053 368.524 147.292 371.286 147.292Z" fill="#FF6584"/>
<path d="M334.275 221.606L372.262 177.985L373.435 179.006L335.448 222.627L334.275 221.606Z" fill="#3F3D56"/>
<path d="M373.286 186.292C377.704 186.292 381.286 182.71 381.286 178.292C381.286 173.873 377.704 170.292 373.286 170.292C368.867 170.292 365.286 173.873 365.286 178.292C365.286 182.71 368.867 186.292 373.286 186.292Z" fill="#3F3D56"/>
<path d="M349.572 205.292C349.572 205.292 364.931 185.719 345.286 172.292L349.572 205.292Z" fill="#3F3D56"/>
<path d="M94.8637 239.696C123.012 291.887 182.753 314.292 182.753 314.292C182.753 314.292 196.856 252.078 168.708 199.887C140.559 147.696 80.8188 125.292 80.8188 125.292C80.8188 125.292 66.7155 187.505 94.8637 239.696Z" fill="#3F3D56"/>
<path d="M113.907 222.752C164.717 253.408 184.286 314.3 184.286 314.3C184.286 314.3 121.475 325.488 70.6644 294.832C19.8543 264.175 0.285645 203.284 0.285645 203.284C0.285645 203.284 63.0966 192.095 113.907 222.752Z" fill="#111B47"/>
<path d="M315.48 223.022C264.394 253.259 244.286 314.042 244.286 314.042C244.286 314.042 307.005 325.799 358.091 295.562C409.178 265.324 429.286 204.542 429.286 204.542C429.286 204.542 366.566 192.784 315.48 223.022Z" fill="#3F3D56"/>
<path d="M334.024 241.512C305.42 293.427 245.493 315.292 245.493 315.292C245.493 315.292 231.942 252.986 260.547 201.071C289.151 149.156 349.079 127.292 349.079 127.292C349.079 127.292 362.629 189.598 334.024 241.512Z" fill="#111B47"/>
<path d="M230.167 99.3318C224.152 93.8891 223.309 84.7425 228.229 78.2917C227.915 78.5864 227.608 78.8923 227.314 79.2175C221.536 85.6111 222.033 95.4804 228.423 101.261C234.814 107.042 244.679 106.545 250.457 100.152C250.751 99.8265 251.024 99.4902 251.286 99.148C245.364 104.693 236.184 104.773 230.167 99.3318Z" fill="#2F2E41"/>
<path d="M215.786 110.292C233.735 110.292 248.286 95.741 248.286 77.7917C248.286 59.8425 233.735 45.2917 215.786 45.2917C197.836 45.2917 183.286 59.8425 183.286 77.7917C183.286 95.741 197.836 110.292 215.786 110.292Z" fill="#2F2E41"/>
<path d="M206.523 119.323L207.498 116.817L189.762 131.657L168.323 143.606C168.323 143.606 157.409 101.977 156.629 101.207C155.85 100.436 141.817 71.1415 135.58 85.0177C129.344 98.8939 147.664 106.988 147.664 106.988C147.664 106.988 148.249 157.675 166.959 157.29C185.669 156.904 208.862 140.137 209.252 138.595C209.642 137.053 206.523 119.323 206.523 119.323Z" fill="#FFB8B8"/>
<path d="M211.786 111.292C222.555 111.292 231.286 102.561 231.286 91.7917C231.286 81.0222 222.555 72.2917 211.786 72.2917C201.016 72.2917 192.286 81.0222 192.286 91.7917C192.286 102.561 201.016 111.292 211.786 111.292Z" fill="#FFB8B8"/>
<path d="M215.165 106.042C215.165 106.042 220.229 112.61 218.67 113.383C217.112 114.155 208.153 114.542 202.7 121.11C197.247 127.678 209.322 144.292 209.322 144.292L255.286 113.769L236.589 107.587C236.589 107.587 223.734 100.633 224.124 93.2917L215.165 106.042Z" fill="#FFB8B8"/>
<path d="M277.286 316.292H225.656C222.731 294.954 221.379 275.4 221.379 275.4C221.379 275.4 220.624 295.069 218.617 316.292H152.286C161.688 253.451 206.264 185.307 206.264 185.307C206.264 185.307 206.651 176.025 207.815 174.477C208.979 172.934 201.227 172.547 197.736 160.947C195.608 153.866 197.521 149.232 199.34 146.701C199.964 145.789 200.733 144.984 201.615 144.317C201.615 144.317 202.39 136.2 201.615 135.039C201.515 134.887 202.28 134.354 203.695 133.543C204.875 132.863 206.505 131.99 208.454 130.986C219.623 125.207 241.243 114.983 248.648 111.5C250.273 110.731 251.216 110.292 251.216 110.292L264.393 114.931C274.854 118.408 274.854 140.452 274.854 140.452L274.262 141.351L258.449 165.251L249.277 179.121C251.604 180.663 246.955 190.333 246.955 190.333C246.955 190.333 253.58 199.83 258.968 214.327C262.015 222.395 264.092 230.795 265.158 239.352C265.837 244.897 265.97 250.495 265.556 256.066C264.12 274.694 270.504 297.334 277.286 316.292Z" fill="#2F2E41"/>
<path d="M264.236 116.726C263.377 116.237 262.348 116.157 261.425 116.506C260.502 116.855 259.778 117.599 259.446 118.538C258.293 121.746 257.124 128.434 257.541 142.339C258.307 167.912 258.69 185.348 258.69 185.348V224.095C258.69 224.095 241.837 261.292 251.029 261.292C260.222 261.292 266.733 231.844 266.733 231.844C266.733 231.844 275.159 187.286 272.478 179.536C272.478 179.536 280.038 126.001 264.236 116.726Z" fill="#FFB8B8"/>
<path d="M209.786 86.2917C218.898 86.2917 226.286 81.143 226.286 74.7917C226.286 68.4405 218.898 63.2917 209.786 63.2917C200.673 63.2917 193.286 68.4405 193.286 74.7917C193.286 81.143 200.673 86.2917 209.786 86.2917Z" fill="#2F2E41"/>
<path d="M236.286 65.2917C245.122 65.2917 252.286 58.1283 252.286 49.2917C252.286 40.4552 245.122 33.2917 236.286 33.2917C227.449 33.2917 220.286 40.4552 220.286 49.2917C220.286 58.1283 227.449 65.2917 236.286 65.2917Z" fill="#2F2E41"/>
<path d="M247.286 60.6764C238.967 60.6752 232.038 54.4219 231.345 46.2917C231.309 46.7233 231.286 47.1586 231.286 47.5994C231.286 56.2661 238.449 63.2917 247.286 63.2917C256.122 63.2917 263.286 56.2661 263.286 47.5994C263.286 47.1586 263.262 46.7234 263.226 46.2917C262.534 54.422 255.604 60.6752 247.286 60.6764Z" fill="#2F2E41"/>
<path d="M230.675 88.3101C231.404 88.1361 231.672 86.6451 231.274 84.9799C230.876 83.3147 229.963 82.1059 229.235 82.2799C228.506 82.4539 228.238 83.9449 228.636 85.6101C229.033 87.2753 229.946 88.4841 230.675 88.3101Z" fill="#FFB8B8"/>
<path d="M230.286 88.2917C230.838 88.2917 231.286 87.844 231.286 87.2917C231.286 86.7395 230.838 86.2917 230.286 86.2917C229.733 86.2917 229.286 86.7395 229.286 87.2917C229.286 87.844 229.733 88.2917 230.286 88.2917Z" fill="#F2F2F2"/>
<path fill-rule="evenodd" clip-rule="evenodd" d="M40.2856 147.792C40.2856 151.382 43.1958 154.292 46.7856 154.292C50.3738 154.288 53.2816 151.38 53.2856 147.792C53.2856 144.202 50.3755 141.292 46.7856 141.292C43.1958 141.292 40.2856 144.202 40.2856 147.792ZM41.369 147.792C41.369 144.8 43.7941 142.375 46.7856 142.375C49.7758 142.379 52.1989 144.802 52.2023 147.792C52.2023 150.783 49.7772 153.208 46.7856 153.208C43.7941 153.208 41.369 150.783 41.369 147.792Z" fill="#3F3D56"/>
<path fill-rule="evenodd" clip-rule="evenodd" d="M304.286 108.292H318.286V94.2917H304.286V108.292ZM317.209 107.215H305.363V95.3687H317.209V107.215Z" fill="#3F3D56"/>
<path d="M436.366 180.824C412.065 180.935 392.286 181.292 392.286 181.292C392.286 181.292 415.797 150.386 436.278 161.836C456.758 173.287 480.286 180.889 480.286 180.889C480.286 180.889 460.666 180.713 436.366 180.824Z" fill="#F2F2F2"/>
<path d="M361.366 75.8243C337.065 75.9355 317.286 76.2917 317.286 76.2917C317.286 76.2917 340.797 45.3859 361.278 56.8363C381.758 68.2867 405.286 75.8893 405.286 75.8893C405.286 75.8893 385.666 75.7132 361.366 75.8243Z" fill="#F2F2F2"/>
<path d="M131.643 89.4247L75.5219 60.4528C71.6895 58.4744 70.1803 53.7516 72.1509 49.9041L85.3724 24.0909C85.7604 23.3333 86.4416 22.7692 87.2562 22.5307L131.491 9.58216C135.163 8.50712 139.032 10.5042 140.297 14.1284L154.831 55.7492C155.564 57.8505 155.406 60.1621 154.391 62.1423L142.151 86.0404C141.204 87.8881 139.566 89.2826 137.595 89.9173C135.625 90.5519 133.484 90.3747 131.643 89.4247Z" fill="#F2F2F2"/>
<path opacity="0.1" d="M133.632 79.8677L77.0911 55.6267C75.2693 54.6859 76.9776 56.132 77.9144 54.3024L85.022 25.2917L154.286 61.0591L136.775 82.8026C135.838 84.6321 135.454 80.8085 133.632 79.8677Z" fill="black"/>
<path d="M86.4422 62.9324C82.4217 60.8649 80.8383 55.9296 82.9058 51.9091L101.945 14.8822C104.013 10.8616 108.948 9.27829 112.969 11.3457L149.996 30.3854C154.016 32.4528 155.6 37.3881 153.532 41.4087L134.492 78.4356C132.425 82.4561 127.49 84.0395 123.469 81.9721L86.4422 62.9324Z" fill="#111B47"/>
<path opacity="0.1" d="M145.286 56.8773L130.744 85.2917L79.2856 58.7057L93.8276 30.2917L113.162 56.0794L145.286 56.8773Z" fill="black"/>
<path d="M112.537 57.9485L87.5734 24.8939C87.2595 24.4783 86.7534 24.2529 86.2336 24.2973C85.7139 24.3416 85.2535 24.6495 85.0149 25.1122L70.8095 52.6678C70.2355 53.7811 70.1285 55.0763 70.5119 56.2684C70.8953 57.4605 71.7378 58.4519 72.854 59.0244L134.746 90.7693C135.862 91.3418 137.161 91.4485 138.356 91.0661C139.551 90.6836 140.545 89.8433 141.119 88.7299L155.081 61.6464C155.372 61.0817 155.352 60.4074 155.027 59.8614C154.702 59.3153 154.118 58.9743 153.482 58.9586L112.537 57.9485Z" fill="#F2F2F2"/>
<path d="M107.698 14.6239L122.125 22.0423L121.076 24.0825L106.649 16.6641L107.698 14.6239Z" fill="#F2F2F2"/>
<path d="M102.711 21.4564L145.554 43.4869L144.954 44.6527L102.111 22.6222L102.711 21.4564Z" fill="#F2F2F2"/>
<path d="M100.687 25.391L143.531 47.4215L142.931 48.5873L100.088 26.5568L100.687 25.391Z" fill="#F2F2F2"/>
<path d="M98.6642 29.3256L141.507 51.356L140.908 52.5218L98.0647 30.4914L98.6642 29.3256Z" fill="#F2F2F2"/>
<path d="M113.359 12.5735C115.059 9.26776 113.762 5.21241 110.462 3.51564C107.162 1.81887 103.109 3.1232 101.409 6.42896C99.7096 9.73471 101.007 13.7901 104.306 15.4868C107.606 17.1836 111.659 15.8793 113.359 12.5735Z" fill="white"/>
<path fill-rule="evenodd" clip-rule="evenodd" d="M100.173 5.63415C102.194 1.70574 107.019 0.15869 110.949 2.17872C114.869 4.20779 116.413 9.0198 114.406 12.9494C112.385 16.8778 107.561 18.4248 103.63 16.4048C99.6998 14.3847 98.152 9.56256 100.173 5.63415ZM102.106 6.81341L103.878 12.3334L113.826 9.14892L113.329 7.60064L104.931 10.2935L103.655 6.31669L102.106 6.81341Z" fill="#57B894"/>
</svg>
