<svg width="37" height="36" viewBox="0 0 37 36" fill="none" xmlns="http://www.w3.org/2000/svg">
<path fill-rule="evenodd" clip-rule="evenodd" d="M35.9083 22.2396C35.6795 22.1487 35.4183 22.2056 35.2483 22.3835L32.6857 25.0769V9.07898H32.6887L35.1337 6.43916C35.3587 6.19611 35.3438 5.81629 35.1005 5.59136L35.0999 5.59081L34.2199 4.77184L35.4427 3.45193C35.6674 3.2086 35.6523 2.82905 35.4089 2.6044L32.7689 0.15957C32.5258 -0.0653583 32.1463 -0.0508025 31.9213 0.192527L27.6553 4.79848H6.88568C6.88376 3.14241 5.54178 1.80053 3.88559 1.79861H3.28574C1.62955 1.80053 0.287567 3.14241 0.285645 4.79848V30.5966C0.285645 30.9278 0.55426 31.1964 0.885773 31.1964H9.96844L8.70831 32.7094C8.49655 32.9642 8.53116 33.3424 8.78577 33.5542L11.5524 35.8575C11.807 36.0696 12.1855 36.035 12.3975 35.7804L12.3978 35.7801L15.4688 32.0909C15.6808 31.8355 15.8173 31.5254 15.8623 31.1964H26.8566L23.2506 34.9828C23.0224 35.2229 23.032 35.6027 23.2721 35.8309C23.3836 35.9369 23.5316 35.9962 23.6857 35.996H35.6855C36.017 35.996 36.2856 35.7274 36.2856 35.3962V22.7971C36.2856 22.5516 36.1362 22.3308 35.9083 22.2396ZM33.8454 6.05832L32.6855 7.31286V6.43045L33.4054 5.65048L33.8454 6.05832ZM31.4856 5.96V5.95149H31.4928L32.5241 4.8381L30.7619 3.20785L24.6491 9.81344L26.4113 11.4437L31.4856 5.96ZM25.2588 12.011L23.8787 12.4136L24.1734 11.0061L25.2588 12.011ZM34.154 3.07595L32.3926 1.44653L31.5771 2.32729L33.3388 3.95836L34.154 3.07595ZM3.28613 2.99851H3.88599C4.88025 2.99851 5.6861 3.8043 5.6861 4.79849V27.6124C5.16974 27.2153 4.5372 26.9988 3.88599 26.9966H3.28613C2.63464 26.9988 2.00238 27.2153 1.48602 27.6124V4.79849C1.48602 3.8043 2.29187 2.99851 3.28613 2.99851ZM3.88599 28.1966H3.28613C2.29187 28.1966 1.48602 29.0027 1.48602 29.9966H5.6861C5.6861 29.0027 4.88025 28.1966 3.88599 28.1966ZM14.5467 31.3235L14.1628 31.7843L12.3184 30.2491L12.7018 29.7877C12.9139 29.5331 13.2921 29.4985 13.5467 29.7105C13.547 29.7105 13.547 29.7108 13.5472 29.7108L14.4693 30.4765C14.7242 30.6883 14.759 31.0664 14.5473 31.3213L14.5467 31.3218V31.3235ZM10.0151 33.0162L11.8597 34.5514L13.3951 32.7066L11.5508 31.1711L10.0151 33.0162ZM15.6104 29.9966C15.5107 29.8304 15.3846 29.6818 15.2371 29.5563L14.3151 28.789C13.551 28.1529 12.4161 28.2564 11.78 29.0205L10.9659 29.9966H6.88586V5.99843H26.5453L23.3612 9.43909C23.3156 9.49045 23.2794 9.54977 23.2544 9.61376C23.2473 9.63106 23.2418 9.64726 23.2357 9.66539C23.2335 9.67226 23.2308 9.67917 23.2281 9.68616C23.2237 9.69735 23.2192 9.70876 23.2165 9.72059L22.5002 13.1451C22.4326 13.4694 22.6408 13.7872 22.9652 13.8547C23.0616 13.8748 23.1613 13.8709 23.2555 13.8435L26.6157 12.8644C26.624 12.8617 26.6317 12.8579 26.6393 12.8541C26.6459 12.8508 26.6524 12.8476 26.6593 12.8451C26.6744 12.8397 26.6901 12.832 26.7063 12.824C26.7736 12.7935 26.8346 12.7504 26.8862 12.6974L31.4859 7.72672V26.3367L27.9999 29.9966H15.6104ZM25.0854 34.796H35.0857V24.2968L25.0854 34.796ZM29.0862 33.5962C28.8434 33.5962 28.6245 33.4501 28.5316 33.226C28.4388 33.0019 28.4902 32.7437 28.6618 32.572L32.8619 28.3726C32.9742 28.26 33.1269 28.1968 33.286 28.1968C33.6172 28.1968 33.8861 28.4651 33.8861 28.7966V32.9964C33.8861 33.3276 33.6175 33.5962 33.286 33.5962H29.0862ZM32.6859 32.3962V30.2447L30.5342 32.3962H32.6859ZM22.4857 22.7971H26.6855C27.017 22.7971 27.2856 23.0656 27.2856 23.3969C27.2856 23.7283 27.017 23.9969 26.6858 23.9969H9.88577C9.55426 23.9969 9.28564 23.7283 9.28564 23.3969C9.28564 23.0656 9.55426 22.7971 9.88577 22.7971H14.0856V16.1975C14.0861 16.0385 14.149 15.8858 14.2608 15.7726L17.8607 12.173C18.095 11.9387 18.4749 11.9387 18.7092 12.173L22.3091 15.7726C22.4214 15.8855 22.4849 16.0382 22.4857 16.1975V22.7971ZM20.4377 15.5974L18.2861 13.4459L16.1344 15.5974H20.4377ZM15.2856 16.7974H21.2858V22.7971H15.2856V16.7974ZM17.6854 9.59816H18.8856V10.7981H17.6854V9.59816ZM18.8856 25.1969H17.6854V26.3968H18.8856V25.1969Z" fill="black"/>
</svg>
