<svg width="1024" height="1118" viewBox="0 0 1024 1118" fill="none" xmlns="http://www.w3.org/2000/svg">
<path opacity="0.5" d="M318.921 43.6942C198.983 144.217 180.396 334.298 99.1666 474.527C70.8898 523.322 34.3523 566.992 15.2893 621.123C-28.4762 745.026 31.7576 885.572 112.378 983.981C150.822 1030.93 195.726 1073.94 250.056 1093.72C291.835 1108.94 336.634 1109.57 380.611 1109.97L1151.07 1117.9C1237.1 1118.77 1332.68 1115.62 1394.53 1049.21C1437.15 1003.48 1454.47 936.692 1469.16 872.944C1487.22 794.613 1503.58 709.546 1475.49 634.94C1443.4 549.582 1362.25 501.21 1311.84 427.555C1230.03 308.223 1231.91 127.731 1127.72 32.4664C1079.09 -11.9959 1014.91 -29.4321 952.369 -38.1502C834.469 -54.6089 722.792 -23.5408 607.011 -27.8734C508.042 -31.572 401.024 -25.1259 318.921 43.6942Z" fill="#E7ECFF"/>
</svg>
