<svg width="1491" height="1161" viewBox="0 0 1491 1161" fill="none" xmlns="http://www.w3.org/2000/svg">
<path opacity="0.5" d="M318.343 86.6943C198.405 187.217 179.819 377.298 98.5892 517.527C70.3124 566.322 33.7749 609.992 14.7119 664.123C-29.0536 788.026 31.1802 928.572 111.801 1026.98C150.245 1073.93 195.149 1116.94 249.478 1136.72C291.258 1151.94 336.056 1152.57 380.033 1152.97L1150.5 1160.9C1236.52 1161.77 1332.1 1158.62 1393.95 1092.21C1436.57 1046.48 1453.89 979.692 1468.58 915.944C1486.64 837.613 1503 752.546 1474.91 677.94C1442.82 592.582 1361.67 544.21 1311.26 470.555C1229.45 351.223 1231.33 170.732 1127.14 75.4665C1078.51 31.0042 1014.33 13.568 951.792 4.84985C833.892 -11.6089 722.215 19.4593 606.433 15.1266C507.464 11.4281 400.447 17.8742 318.343 86.6943Z" fill="#E7ECFF"/>
</svg>
